<?xml version="1.0" encoding="utf-8"?>
<!-- Generator: Adobe Illustrator 26.5.0, SVG Export Plug-In . SVG Version: 6.00 Build 0)  -->
<?xml version="1.0" encoding="utf-8"?>
<!-- Generator: Adobe Illustrator 26.5.0, SVG Export Plug-In . SVG Version: 6.00 Build 0)  -->
<svg version="1.1" xmlns="http://www.w3.org/2000/svg" xmlns:xlink="http://www.w3.org/1999/xlink" x="0px" y="0px"
	 viewBox="0 0 609 562" style="enable-background:new 0 0 609 562;" xml:space="preserve">
<style type="text/css">
      svg{
		width: 300px;
		height: 300px;
	  }
	.st0{fill:url(#SVGID_1_);}
	.st1{fill:url(#SVGID_00000094586915200640158570000005110172378305521829_);}
	.st2{fill:#E68A00;}
	.st3{font-family:'Spumante-Bold';}
	.st4{font-size:25.1092px;}
	.st5{fill:#000033;}
	.st6{fill:#FFFFFF;}
	.st7{font-family:'MyriadPro-Regular';}
	.st8{font-size:36px;}
	.st9{fill:none;}
	.st10{fill:#000030;}
	.st11{fill:none;stroke:#000000;stroke-miterlimit:10;}
	.st12{fill:none;stroke:#231F20;stroke-linecap:round;stroke-miterlimit:10;}
	.st13{fill:#231F20;}
	.st14{fill:url(#SVGID_00000095330202353100146540000014654749581700001694_);}
	.st15{fill:url(#SVGID_00000026128455940486568090000012601788038336825238_);}
	.st16{fill:url(#SVGID_00000069400052563782357600000005515780988129000082_);}
</style>
<g id="Ellipse">
	<g>
		<radialGradient id="SVGID_1_" cx="305" cy="285" r="90.4129" gradientUnits="userSpaceOnUse">
			<stop  offset="0.0451" style="stop-color:#FFFFB3;stop-opacity:0.9"/>
			<stop  offset="1" style="stop-color:#000006"/>
		</radialGradient>
		<ellipse class="st0" cx="305" cy="285" rx="107" ry="70"/>
		
			<radialGradient id="SVGID_00000011753037414172895470000008853522518014363581_" cx="305" cy="285" r="90.4129" gradientUnits="userSpaceOnUse">
			<stop  offset="6.846893e-08" style="stop-color:#E68A00"/>
			<stop  offset="1" style="stop-color:#FFF5E6"/>
		</radialGradient>
		<path style="fill:url(#SVGID_00000011753037414172895470000008853522518014363581_);" d="M305,216c58.45,0,106,30.95,106,69
			s-47.55,69-106,69s-106-30.95-106-69S246.55,216,305,216 M305,215c-59.09,0-107,31.34-107,70s47.91,70,107,70s107-31.34,107-70
			S364.09,215,305,215L305,215z"/>
	</g>
	<text transform="matrix(0.966 0 0 1 253.9668 279.082)"><tspan x="0" y="0" class="st2 st3 st4">My Creative </tspan><tspan x="0" y="30.13" class="st2 st3 st4">Pages</tspan></text>
</g>
<g id="EllipseNonGradient">
	<g>
		<ellipse class="st5" cx="305" cy="285" rx="106.5" ry="69.5"/>
		<path d="M305,216c58.45,0,106,30.95,106,69s-47.55,69-106,69s-106-30.95-106-69S246.55,216,305,216 M305,215
			c-59.09,0-107,31.34-107,70s47.91,70,107,70s107-31.34,107-70S364.09,215,305,215L305,215z"/>
	</g>
	<g id="Click_Me_x21_">
		<text transform="matrix(1 0 0 1 268.7021 272.8511)"><tspan x="0" y="0" class="st6 st7 st8">Click </tspan><tspan x="0" y="43.2" class="st6 st7 st8">ME!!!</tspan></text>
		<rect x="277.62" y="266.81" class="st9" width="19.91" height="1.53"/>
	</g>
</g>
<g id="mouse_pointer">
	<path class="st10" d="M340.86,299c1.19,0,2.33,0.37,3.22,1.05l57.37,43.49c0.98,0.75,1.55,1.82,1.55,2.95
		c0,2.18-2.07,3.95-4.63,3.95h-24.73l11.89,20.3c1.65,2.82,0.31,6.25-2.99,7.66c-3.31,1.41-7.33,0.27-8.98-2.55l-12.19-20.77
		l-17.3,16.88c-0.88,0.86-2.14,1.34-3.47,1.34c-2.54,0-4.61-1.77-4.61-4.09v-66.06C336,300.85,338.17,299,340.86,299L340.86,299z"/>
	<g>
		<g>
			<path d="M105.77,410.01c-1.2-4.95-2.39-9.9-3.59-14.86c-0.4-1.67-2.92-1.27-2.95,0.4c-0.09,6.74-0.47,13.47-1.14,20.17
				c1,0,2,0,3,0c-0.1-2.05-0.05-4.12,0.26-6.16c0.3-1.96,0.9-3.84,1.32-5.77c0.84-3.8,0.01-7.28-1.69-10.71
				c-1.06-2.13-3.32-7.21-6.57-5.63c-1.63,0.79-1.57,2.73-1.71,4.28c-0.19,2.05-0.38,4.1-0.57,6.15c-0.18,1.92,2.82,1.91,3,0
				c0.15-1.58,0.29-3.15,0.44-4.73c0.07-0.79,0.14-1.58,0.22-2.36c0.01-0.13,0.15-0.61,0.09-0.74c-0.45,0.03-0.54,0.11-0.27,0.21
				c0.13,0.07,0.25,0.15,0.35,0.26c0.91,0.8,1.47,2.22,2.02,3.28c0.7,1.33,1.32,2.69,1.71,4.15c0.8,3-0.12,5.61-0.79,8.52
				c-0.7,3.03-0.96,6.15-0.81,9.26c0.1,1.96,2.81,1.9,3,0c0.67-6.71,1.05-13.43,1.14-20.17c-0.98,0.13-1.96,0.27-2.95,0.4
				c1.2,4.95,2.39,9.9,3.59,14.86C103.33,412.68,106.22,411.89,105.77,410.01L105.77,410.01z"/>
		</g>
	</g>
	<g>
		<g>
			<path d="M82.5,397.88c0.27,5.59,0.53,11.17,0.8,16.76c0.17,3.56,1.39,6.98,3.95,9.55c1.22,1.32,2.67,2.25,4.34,2.79
				c1.61,0.85,3.34,1.23,5.2,1.16c3.49-0.16,7.11-1.3,9.55-3.95c2.36-2.57,4.12-5.95,3.95-9.55c-0.27-5.59-0.53-11.17-0.8-16.76
				c-0.17-3.56-1.39-6.98-3.95-9.55c-1.22-1.32-2.67-2.25-4.34-2.79c-1.61-0.85-3.34-1.23-5.2-1.16c-3.49,0.16-7.11,1.3-9.55,3.95
				C84.1,390.91,82.33,394.29,82.5,397.88L82.5,397.88z"/>
		</g>
	</g>
	<g>
		<g>
			<path d="M99.68,396c-0.2,3-0.5,5.98-0.9,8.96c0.16-1.2,0.32-2.39,0.48-3.59c-0.47,3.47-1.08,6.92-1.81,10.34
				c-0.76,3.55-0.51,7.21,1.36,10.4c1.64,2.8,4.85,5.47,8.07,6.2c3.46,0.79,7.33,0.62,10.4-1.36c2.86-1.84,5.46-4.63,6.2-8.07
				c1.62-7.52,2.68-15.21,3.2-22.89c0.07-1.86-0.32-3.59-1.16-5.2c-0.54-1.67-1.47-3.12-2.79-4.34c-1.22-1.32-2.67-2.25-4.34-2.79
				c-1.61-0.85-3.34-1.23-5.2-1.16c-3.49,0.16-7.11,1.3-9.55,3.95c-0.7,0.91-1.41,1.82-2.11,2.73
				C100.31,391.29,99.69,393.56,99.68,396L99.68,396z"/>
		</g>
	</g>
	<g>
		<g>
			<path d="M114.43,404.99c0.45,0.64,0.83,1.32,1.14,2.04c-0.45-1.07-0.91-2.15-1.36-3.22c0.38,0.92,0.63,1.87,0.77,2.86
				c-0.16-1.2-0.32-2.39-0.48-3.59c0.15,1.14,0.14,2.27-0.01,3.4c0.16-1.2,0.32-2.39,0.48-3.59c-0.17,1.13-0.47,2.23-0.91,3.28
				c0.45-1.07,0.91-2.15,1.36-3.22c-0.4,0.91-0.9,1.76-1.5,2.56c0.7-0.91,1.41-1.82,2.11-2.73c-0.57,0.73-1.22,1.37-1.95,1.94
				c0.91-0.7,1.82-1.41,2.73-2.11c-0.11,0.09-0.23,0.17-0.35,0.25c-1.57,0.85-2.84,2.01-3.79,3.48c-1.19,1.3-2,2.83-2.42,4.59
				c-0.56,1.79-0.64,3.59-0.24,5.38c0.08,1.8,0.62,3.47,1.6,5.02c1.86,2.88,4.63,5.42,8.07,6.2c3.36,0.77,7.48,0.72,10.4-1.36
				c1.5-1.07,3.14-2.2,4.41-3.58c1-1.07,1.85-2.29,2.73-3.46c0.25-0.34,0.5-0.68,0.72-1.05c0.99-1.62,1.67-3.47,2.34-5.23
				c0.29-0.77,0.51-1.56,0.65-2.37c0.32-1.84,0.66-3.81,0.67-5.72c0-1.98-0.33-3.99-0.7-5.92c-0.15-0.77-0.38-1.5-0.67-2.23
				c-0.7-1.76-1.39-3.68-2.5-5.26c-0.85-1.57-2.01-2.84-3.48-3.79c-1.3-1.19-2.83-2-4.59-2.42c-1.79-0.56-3.59-0.64-5.38-0.24
				c-1.8,0.08-3.47,0.62-5.02,1.6c-2.88,1.86-5.42,4.63-6.2,8.07C112.3,397.95,112.36,402.05,114.43,404.99L114.43,404.99z"/>
		</g>
	</g>
	<g>
		<g>
			<path d="M126.73,416.2c-0.04,0.01-0.08,0.01-0.12,0.02c1.2-0.16,2.39-0.32,3.59-0.48c-0.15,0.02-0.29,0.02-0.44,0.01
				c1.2,0.16,2.39,0.32,3.59,0.48c-0.17-0.02-0.33-0.07-0.5-0.13c1.07,0.45,2.15,0.91,3.22,1.36c-0.13-0.06-0.24-0.13-0.35-0.21
				c0.91,0.7,1.82,1.41,2.73,2.11c-0.17-0.13-0.32-0.28-0.46-0.45c0.7,0.91,1.41,1.82,2.11,2.73c-0.19-0.25-0.34-0.52-0.47-0.8
				c0.45,1.07,0.91,2.15,1.36,3.22c-0.2-0.47-0.32-0.95-0.4-1.46c0.16,1.2,0.32,2.39,0.48,3.59c-0.18-1.4,0.23-2.78,0.2-4.18
				c-0.03-1.49-0.3-3.02-0.55-4.45c-0.25-1.4-1.09-2.96-1.59-4.07c-1.11-2.48-3.65-4.76-5.93-6.12c-1.55-0.99-3.22-1.52-5.02-1.6
				c-1.79-0.4-3.59-0.32-5.38,0.24c-1.76,0.42-3.29,1.22-4.59,2.42c-1.47,0.95-2.63,2.21-3.48,3.79c-0.45,1.07-0.91,2.15-1.36,3.22
				c-0.64,2.39-0.64,4.79,0,7.18c0.45,1.07,0.91,2.15,1.36,3.22c1.2,2.03,2.81,3.64,4.84,4.84c0.11,0.07,0.21,0.14,0.32,0.21
				c-0.91-0.7-1.82-1.41-2.73-2.11c0.16,0.13,0.3,0.27,0.42,0.43c-0.7-0.91-1.41-1.82-2.11-2.73c0.14,0.2,0.25,0.4,0.35,0.63
				c-0.45-1.07-0.91-2.15-1.36-3.22c0.12,0.32,0.2,0.64,0.25,0.98c-0.16-1.2-0.32-2.39-0.48-3.59c0.12,0.96,0.02,1.93-0.09,2.89
				c-0.25,2.05,0.07,4.1,0.52,6.12c0.32,1.45,1.16,3.15,1.72,4.29c0.09,0.19,0.2,0.38,0.32,0.56c0.62,0.91,1.5,2.03,2.21,2.87
				c0.06,0.07,0.12,0.14,0.18,0.2c0.06,0.06,0.13,0.12,0.19,0.18c0.48,0.37,0.96,0.75,1.45,1.12c0.47,0.4,0.95,0.77,1.45,1.11
				c1.11,0.68,2.36,1.15,3.59,1.55c0.1,0.03,0.19,0.06,0.3,0.08c0.03,0,0.07,0.01,0.1,0.01c1.2,0.16,2.39,0.32,3.59,0.48
				c1.39,0.07,2.79-0.29,4.14-0.51c1.76-0.42,3.29-1.22,4.59-2.42c1.47-0.95,2.63-2.21,3.48-3.79c0.99-1.55,1.52-3.22,1.6-5.02
				c0.4-1.79,0.32-3.59-0.24-5.38c-0.45-1.07-0.91-2.15-1.36-3.22c-1.2-2.03-2.81-3.64-4.84-4.84c-1.07-0.45-2.15-0.91-3.22-1.36
				C131.52,415.56,129.12,415.56,126.73,416.2L126.73,416.2z"/>
		</g>
	</g>
	<g>
		<g>
			<path d="M488.6,410.14c0.62,0,1.24,0,1.86,0c1.86,0.07,3.59-0.32,5.2-1.16c1.67-0.54,3.12-1.47,4.34-2.79
				c1.32-1.22,2.25-2.67,2.79-4.34c0.85-1.61,1.23-3.34,1.16-5.2c-0.16-1.2-0.32-2.39-0.48-3.59c-0.64-2.29-1.8-4.27-3.47-5.96
				c-0.91-0.7-1.82-1.41-2.73-2.11c-2.11-1.22-4.38-1.84-6.81-1.84c-0.62,0-1.24,0-1.86,0c-1.86-0.07-3.59,0.32-5.2,1.16
				c-1.67,0.54-3.12,1.47-4.34,2.79c-1.32,1.22-2.25,2.67-2.79,4.34c-0.85,1.61-1.23,3.34-1.16,5.2c0.16,1.2,0.32,2.39,0.48,3.59
				c0.64,2.29,1.8,4.27,3.47,5.96c0.91,0.7,1.82,1.41,2.73,2.11C483.89,409.52,486.17,410.13,488.6,410.14L488.6,410.14z"/>
		</g>
	</g>
	<g>
		<g>
			<path d="M477.89,394.38c-0.58,2.82-1.15,5.64-1.73,8.47c-0.75,3.69-1.71,7.41-1.97,11.17c-0.14,1.94,0.12,3.97,0.69,5.82
				c1.13,3.72,3.68,7.42,7.21,9.25c2.34,1.22,4.97,2.11,7.65,2.02c1.54-0.06,3.26-0.23,4.74-0.73c2.26-0.76,4.19-1.91,6.32-2.87
				c-1.07,0.45-2.15,0.91-3.22,1.36c0.61-0.25,1.21-0.46,1.86-0.58c-1.2,0.16-2.39,0.32-3.59,0.48c0.38-0.04,0.71-0.04,1.09,0
				c-1.2-0.16-2.39-0.32-3.59-0.48c0.24,0.04,0.48,0.1,0.7,0.2c-1.07-0.45-2.15-0.91-3.22-1.36c0.23,0.1,0.45,0.22,0.65,0.37
				c-0.91-0.7-1.82-1.41-2.73-2.11c0.84,0.66,1.64,1.36,2.49,2.01c1.74,1.34,3.22,2.16,5.38,2.9c1.49,0.51,3.32,0.71,4.92,0.71
				c1.26,0,2.75-0.29,3.98-0.52c0.34-0.06,0.66-0.13,0.99-0.23c2.31-0.69,4.38-1.69,6.79-2.04c-1.2,0.16-2.39,0.32-3.59,0.48
				c1.19-0.15,2.37-0.18,3.57-0.05c-1.2-0.16-2.39-0.32-3.59-0.48c1.04,0.14,2.03,0.39,3.01,0.8c-1.07-0.45-2.15-0.91-3.22-1.36
				c1.32,0.61,2.42,1.52,3.63,2.29c2.91,1.87,6.49,2.89,9.94,2.9c3,0,5.83-1.09,8.18-2.9c2.23-1.72,4.19-4.19,4.84-7.01
				c0.54-2.37,0.54-4.8,0-7.18c-0.42-1.76-1.22-3.29-2.42-4.59c-0.95-1.47-2.21-2.63-3.79-3.48c-0.36-0.16-0.69-0.33-1.01-0.56
				c0.91,0.7,1.82,1.41,2.73,2.11c-0.29-0.24-0.54-0.49-0.78-0.79c0.7,0.91,1.41,1.82,2.11,2.73c-0.22-0.31-0.4-0.63-0.56-0.97
				c0.45,1.07,0.91,2.15,1.36,3.22c-0.23-0.55-0.37-1.11-0.47-1.7c0.16,1.2,0.32,2.39,0.48,3.59c-0.12-0.94-0.11-1.87,0.01-2.82
				c-0.16,1.2-0.32,2.39-0.48,3.59c0.22-1.44,0.72-2.75,1.28-4.08c-0.45,1.07-0.91,2.15-1.36,3.22c1.9-4.49,3.82-8.54,3.8-13.55
				c-0.02-5.25-2.16-10.77-6.15-14.28c-2.51-2.21-4.72-3.51-7.9-4.61c-0.46-0.16-0.91-0.29-1.4-0.38c-1.5-0.28-3.15-0.59-4.7-0.55
				c-3.46,0.09-5.95,0.89-9.01,2.34c-1.08,0.52-2.06,1.22-3.14,1.73c1.07-0.45,2.15-0.91,3.22-1.36c-0.46,0.19-0.9,0.32-1.4,0.39
				c1.2-0.16,2.39-0.32,3.59-0.48c-0.12,0-0.25,0.01-0.37,0.01c-3.55,0.14-7,1.41-9.55,3.95c-2.34,2.34-4.1,6.18-3.95,9.55
				c0.16,3.49,1.3,7.11,3.95,9.55c2.58,2.37,5.94,4.1,9.55,3.95c3.4-0.14,6.06-0.92,9.08-2.49c0.96-0.5,1.83-1.12,2.82-1.57
				c-1.07,0.45-2.15,0.91-3.22,1.36c0.51-0.2,1.01-0.32,1.55-0.39c-1.2,0.16-2.39,0.32-3.59,0.48c0.54-0.04,1.06-0.03,1.59,0.04
				c-1.2-0.16-2.39-0.32-3.59-0.48c0.54,0.1,1.04,0.24,1.55,0.43c-1.07-0.45-2.15-0.91-3.22-1.36c0.6,0.26,1.14,0.58,1.67,0.98
				c-0.91-0.7-1.82-1.41-2.73-2.11c0.42,0.35,0.78,0.72,1.12,1.14c-0.7-0.91-1.41-1.82-2.11-2.73c0.32,0.44,0.57,0.89,0.78,1.39
				c-0.45-1.07-0.91-2.15-1.36-3.22c0.17,0.48,0.28,0.96,0.36,1.47c-0.16-1.2-0.32-2.39-0.48-3.59c0.07,0.72,0.05,1.41-0.05,2.13
				c0.16-1.2,0.32-2.39,0.48-3.59c-0.28,1.62-0.87,3.12-1.5,4.63c0.45-1.07,0.91-2.15,1.36-3.22c-0.98,2.32-2.26,4.71-2.82,7.2
				c-0.49,2.19-0.89,4.61-0.72,6.89c0.26,3.43,0.87,6.45,2.62,9.47c1.5,2.58,4.15,5.46,6.93,6.66c2.27-8.39,4.54-16.77,6.81-25.16
				c-0.25,0.01-0.5,0-0.74-0.04c1.2,0.16,2.39,0.32,3.59,0.48c-0.37-0.07-0.7-0.17-1.06-0.3c1.08,0.45,2.15,0.91,3.22,1.36
				c-1.66-0.74-2.99-2.02-4.6-2.85c-3.61-1.85-7.08-2.71-11.16-2.88c-2.85-0.11-5.81,0.36-8.55,1.09c-1.83,0.49-3.53,1.46-5.41,1.79
				c1.2-0.16,2.39-0.32,3.59-0.48c-0.41,0.04-0.75,0.04-1.16-0.02c1.2,0.16,2.39,0.32,3.59,0.48c-0.26-0.05-0.5-0.13-0.74-0.25
				c1.07,0.45,2.15,0.91,3.22,1.36c-0.22-0.11-0.42-0.25-0.61-0.41c0.91,0.7,1.82,1.41,2.73,2.11c-1.44-1.22-2.85-2.52-4.5-3.44
				c-3.28-1.81-6.76-2.28-10.4-1.79c-2.76,0.37-4.4,1.02-7.06,2.26c-0.92,0.43-1.8,0.93-2.72,1.36c1.07-0.45,2.15-0.91,3.22-1.36
				c-0.39,0.15-0.73,0.25-1.14,0.32c1.2-0.16,2.39-0.32,3.59-0.48c-0.13,0-0.26,0-0.39,0c1.2,0.16,2.39,0.32,3.59,0.48
				c-0.23-0.02-0.44-0.08-0.65-0.18c1.07,0.45,2.15,0.91,3.22,1.36c-0.08-0.04-0.16-0.09-0.23-0.13c0.91,0.7,1.82,1.41,2.73,2.11
				c-0.15-0.1-0.27-0.22-0.38-0.35c0.7,0.91,1.41,1.82,2.11,2.73c-0.11-0.14-0.21-0.29-0.28-0.45c0.45,1.07,0.91,2.15,1.36,3.22
				c-0.15-0.36-0.24-0.71-0.3-1.1c0.16,1.2,0.32,2.39,0.48,3.59c-0.06-0.62-0.03-1.23,0.04-1.85c-0.16,1.2-0.32,2.39-0.48,3.59
				c0.82-5.22,2.11-10.41,3.17-15.59c0.73-3.58,0.53-7.18-1.36-10.4c-1.64-2.8-4.85-5.47-8.07-6.2c-3.46-0.79-7.33-0.62-10.4,1.36
				C481.25,388.15,478.59,390.95,477.89,394.38L477.89,394.38z"/>
		</g>
	</g>
</g>
<g id="computer_icon">
	<path class="st10" d="M574.94,424.01h-34.83c-1.6,1.66-4.43,1.46-6.4,0h-493c-7.69,0-14.06,7.25-14.06,16v16
		c0,35.24,25.26,63.98,56.23,63.98h449.88c30.97,0,56.23-28.74,56.23-63.98v-16C589,432.11,582.67,424.01,574.94,424.01z"/>
	<path class="st10" d="M139.12,136.98h337.41v255.94h56.18c-1.24-1.89-0.97-3.73,0.05-5.09V120.99c0-26.37-19-47.99-42.18-47.99
		H125.06c-23.18,0-42.18,21.61-42.18,47.99v271.93h56.23V136.98z"/>
	<line class="st11" x1="476.5" y1="390.5" x2="476.5" y2="425.5"/>
	<line class="st11" x1="532.5" y1="389.5" x2="532.5" y2="394.5"/>
	<line class="st12" x1="138.98" y1="400.08" x2="138.98" y2="423.58"/>
	<g>
		<g>
			<path class="st13" d="M532.46,393.45c0,11.06,0,22.13,0,33.19c0,1.93,3,1.93,3,0c0-11.06,0-22.13,0-33.19
				C535.46,391.52,532.46,391.51,532.46,393.45L532.46,393.45z"/>
		</g>
	</g>
	<g>
		<g>
			<path class="st13" d="M-50.72,4.31c1.93,0,1.93-3,0-3C-52.65,1.31-52.66,4.31-50.72,4.31L-50.72,4.31z"/>
		</g>
	</g>
</g>
<g id="circles">
	<g id="rightCircle">
		<g>
			
				<linearGradient id="SVGID_00000061434936008938099450000008777149300026497176_" gradientUnits="userSpaceOnUse" x1="412" y1="325" x2="464" y2="325">
				<stop  offset="6.846893e-08" style="stop-color:#E68A00"/>
				<stop  offset="0.5174" style="stop-color:#FFAD33"/>
				<stop  offset="0.769" style="stop-color:#FFD392"/>
				<stop  offset="1" style="stop-color:#FFF5E6"/>
			</linearGradient>
			<circle style="fill:url(#SVGID_00000061434936008938099450000008777149300026497176_);" cx="438" cy="325" r="26"/>
		</g>
	</g>
	<g id="middleCircle">
		<g>
			
				<linearGradient id="SVGID_00000135649089415126542930000001491415040636142219_" gradientUnits="userSpaceOnUse" x1="265" y1="390" x2="325" y2="390">
				<stop  offset="6.846893e-08" style="stop-color:#E68A00"/>
				<stop  offset="0.5174" style="stop-color:#FFAD33"/>
				<stop  offset="0.769" style="stop-color:#FFD392"/>
				<stop  offset="1" style="stop-color:#FFF5E6"/>
			</linearGradient>
			<ellipse style="fill:url(#SVGID_00000135649089415126542930000001491415040636142219_);" cx="295" cy="390" rx="30" ry="28"/>
		</g>
	</g>
	<g id="leftCircle">
		<g>
			
				<linearGradient id="SVGID_00000083792625327986794900000010520534782823179961_" gradientUnits="userSpaceOnUse" x1="157" y1="324.5" x2="205" y2="324.5">
				<stop  offset="6.846893e-08" style="stop-color:#E68A00"/>
				<stop  offset="0.5174" style="stop-color:#FFAD33"/>
				<stop  offset="0.769" style="stop-color:#FFD392"/>
				<stop  offset="1" style="stop-color:#FFF5E6"/>
			</linearGradient>
			
				<ellipse style="fill:url(#SVGID_00000083792625327986794900000010520534782823179961_);" cx="181" cy="324.5" rx="24" ry="22.5"/>
		</g>
	</g>
</g>
</svg>
